<svg xmlns="http://www.w3.org/2000/svg" xmlns:xlink="http://www.w3.org/1999/xlink" width="113.359" height="110.97" viewBox="0 0 113.359 110.97">
  <defs>
    <clipPath id="clip-path">
      <rect width="113.359" height="110.97" fill="none"/>
    </clipPath>
    <filter id="facebook-square-brands" x="0" y="0" width="113.359" height="110.97" filterUnits="userSpaceOnUse">
      <feOffset dy="3" input="SourceAlpha"/>
      <feGaussianBlur stdDeviation="3" result="blur"/>
      <feFlood flood-opacity="0.502"/>
      <feComposite operator="in" in2="blur"/>
      <feComposite in="SourceGraphic"/>
    </filter>
  </defs>
  <g id="Repeat_Grid_3" data-name="Repeat Grid 3" clip-path="url(#clip-path)">
    <g transform="translate(-2806.976 -2199.133)">
      <g transform="matrix(1, 0, 0, 1, 2806.98, 2199.13)" filter="url(#facebook-square-brands)">
        <path id="facebook-square-brands-2" data-name="facebook-square-brands" d="M85.142,32H10.217A10.092,10.092,0,0,0,0,41.961v73.048a10.092,10.092,0,0,0,10.217,9.961H39.431V93.363H26.022V78.485h13.41V67.146c0-12.9,7.876-20.022,19.938-20.022a83.265,83.265,0,0,1,11.818,1V60.788H64.531c-6.558,0-8.6,3.968-8.6,8.037v9.66h14.64L68.226,93.363h-12.3V124.97H85.142a10.092,10.092,0,0,0,10.217-9.961V41.961A10.092,10.092,0,0,0,85.142,32Z" transform="translate(9 -26)" fill="#fff"/>
      </g>
    </g>
  </g>
</svg>
