<svg xmlns="http://www.w3.org/2000/svg" viewBox="0 0 73.87 60.64"><defs><style>.cls-1{fill:#2e6870;}.cls-2{fill:none;stroke:#2e6870;stroke-miterlimit:10;stroke-width:3px;}</style></defs><g id="Layer_2" data-name="Layer 2"><g id="Layer_1-2" data-name="Layer 1"><path class="cls-1" d="M32.27,52.58a7.72,7.72,0,0,1-.37,4.69,7.9,7.9,0,0,1-2.65,3.37H48.81a7.86,7.86,0,0,1-3.62-8.06"/><path class="cls-2" d="M41.78,10l-40.27.05.15,38.81,70.69.32c-.07-13.08.07-26.15,0-39.23l-10.94,0"/><path class="cls-1" d="M20.48,40.67a4,4,0,0,0,2.77-.27,4.67,4.67,0,0,0,2.46-3.18c.16-.88-.12-1.15.17-1.87a3.1,3.1,0,0,1,2-1.67,3.51,3.51,0,0,1,2.83.44,4.37,4.37,0,0,1,1.1.89,4,4,0,0,1,1.33,2.36c.07,1.61-1.76,2.8-2,3a7.57,7.57,0,0,1-3.37.84,17.94,17.94,0,0,1-2.19.14,19.66,19.66,0,0,1-4.81-.57"/><path class="cls-1" d="M60.3,1.42A4.64,4.64,0,0,0,57.2,0a6.53,6.53,0,0,0-5.71,3q-3.81,4.86-7.63,9.73l-7.78,10-5.47,7s-1.36,1.83-1.36,1.83L32.18,34,44.34,22.24,55.81,11l3.63-3.42a5.83,5.83,0,0,0,1.34-2.37A4.06,4.06,0,0,0,60.3,1.42Zm-3,1.32L54,5.52,52.62,4.43a5.17,5.17,0,0,1,2.46-1.74,5.7,5.7,0,0,1,2.41-.27A3.45,3.45,0,0,1,57.29,2.74Z"/></g></g></svg>