<svg xmlns="http://www.w3.org/2000/svg" xmlns:xlink="http://www.w3.org/1999/xlink" width="113.36" height="110.97" viewBox="0 0 113.36 110.97">
  <defs>
    <filter id="instagram-square-brands" x="0" y="0" width="113.36" height="110.97" filterUnits="userSpaceOnUse">
      <feOffset dy="3" input="SourceAlpha"/>
      <feGaussianBlur stdDeviation="3" result="blur"/>
      <feFlood flood-opacity="0.502"/>
      <feComposite operator="in" in2="blur"/>
      <feComposite in="SourceGraphic"/>
    </filter>
  </defs>
  <g transform="matrix(1, 0, 0, 1, 0, 0)" filter="url(#instagram-square-brands)">
    <path id="instagram-square-brands-2" data-name="instagram-square-brands" d="M47.68,67.416A11.073,11.073,0,1,0,59.038,78.486,11.214,11.214,0,0,0,47.68,67.416Zm26.545-8.508A11.354,11.354,0,0,0,67.752,52.6c-4.47-1.72-15.113-1.334-20.072-1.334s-15.592-.4-20.075,1.334a11.354,11.354,0,0,0-6.473,6.311c-1.762,4.358-1.369,14.744-1.369,19.576s-.394,15.205,1.377,19.578a11.354,11.354,0,0,0,6.473,6.311c4.47,1.72,15.113,1.334,20.075,1.334s15.59.4,20.072-1.334a11.354,11.354,0,0,0,6.473-6.311C76.011,93.7,75.6,83.316,75.6,78.485s.409-15.2-1.369-19.576ZM47.68,95.5A17.022,17.022,0,1,1,65.134,78.485a16.782,16.782,0,0,1-5.106,12.039A17.663,17.663,0,0,1,47.68,95.5ZM65.854,64.726a3.973,3.973,0,1,1,4.072-3.971,3.913,3.913,0,0,1-1.184,2.812,4.119,4.119,0,0,1-2.879,1.167ZM85.143,32H10.217A10.092,10.092,0,0,0,0,41.961v73.048a10.092,10.092,0,0,0,10.217,9.961H85.143a10.092,10.092,0,0,0,10.217-9.961V41.961A10.092,10.092,0,0,0,85.143,32ZM81.5,92.181c-.275,5.319-1.52,10.032-5.5,13.9s-8.812,5.111-14.261,5.364c-5.622.309-22.476.309-28.1,0-5.456-.268-10.272-1.484-14.261-5.364s-5.243-8.6-5.5-13.9c-.317-5.483-.317-21.916,0-27.393.275-5.319,1.5-10.032,5.5-13.9s8.827-5.1,14.261-5.35c5.622-.309,22.476-.309,28.1,0C67.19,45.8,72.022,47.018,76,50.9s5.243,8.6,5.5,13.914C81.816,70.275,81.816,86.695,81.5,92.181Z" transform="translate(9 -26)" fill="#fff"/>
  </g>
</svg>
