<svg xmlns="http://www.w3.org/2000/svg" xmlns:xlink="http://www.w3.org/1999/xlink" width="113.36" height="110.97" viewBox="0 0 113.36 110.97">
  <defs>
    <filter id="linkedin-brands" x="0" y="0" width="113.36" height="110.97" filterUnits="userSpaceOnUse">
      <feOffset dy="3" input="SourceAlpha"/>
      <feGaussianBlur stdDeviation="3" result="blur"/>
      <feFlood flood-opacity="0.502"/>
      <feComposite operator="in" in2="blur"/>
      <feComposite in="SourceGraphic"/>
    </filter>
  </defs>
  <g transform="matrix(1, 0, 0, 1, 0, 0)" filter="url(#linkedin-brands)">
    <path id="linkedin-brands-2" data-name="linkedin-brands" d="M88.549,32H6.79A6.755,6.755,0,0,0,0,38.7v79.564a6.755,6.755,0,0,0,6.79,6.7H88.549a6.773,6.773,0,0,0,6.811-6.7V38.7A6.773,6.773,0,0,0,88.549,32ZM28.821,111.689H14.687V67.32H28.842v44.368ZM21.754,61.261a7.992,7.992,0,1,1,8.195-7.99A8.1,8.1,0,0,1,21.754,61.261ZM81.8,111.689H67.667V90.106c0-5.147-.106-11.767-7.344-11.767-7.365,0-8.493,5.6-8.493,11.393v21.956H37.7V67.32H51.256v6.06h.192c1.894-3.486,6.513-7.16,13.389-7.16,14.3,0,16.965,9.193,16.965,21.147Z" transform="translate(9 -26)" fill="#fff"/>
  </g>
</svg>
