<svg xmlns="http://www.w3.org/2000/svg" viewBox="0 0 71.96 63.45"><defs><style>.cls-1{fill:#fff;stroke:#2e6870;stroke-miterlimit:10;}</style></defs><g id="Layer_2" data-name="Layer 2"><g id="Layer_1-2" data-name="Layer 1"><rect class="cls-1" x="0.5" y="0.5" width="33.54" height="52.14"/><path class="cls-1" d="M4.49,11.26H28.76"/><path class="cls-1" d="M4.65,19.21H28.92"/><path class="cls-1" d="M4.65,27.08H28.92"/><path class="cls-1" d="M4.65,34H28.92"/><path class="cls-1" d="M4.65,40.85H28.92"/><polygon class="cls-1" points="47.88 57.15 14.52 53.73 20.21 1.88 53.56 5.31 47.88 57.15"/><path class="cls-1" d="M24.07,11.77l24.06,3.08"/><path class="cls-1" d="M23,19.85l24.11,2.66"/><path class="cls-1" d="M22,27.11l24.15,2.25"/><path class="cls-1" d="M21,33.59l24.1,2.72"/><path class="cls-1" d="M20,41.36l24.08,2.92"/><polygon class="cls-1" points="60.05 62.86 27.25 56.04 38.57 5.07 71.37 11.89 60.05 62.86"/><path class="cls-1" d="M41.33,15.29l23.59,5.53"/><path class="cls-1" d="M39.41,23.22,63.1,28.33"/><path class="cls-1" d="M37.56,30.34,61.34,35"/><path class="cls-1" d="M35.89,36.68l23.67,5.17"/><path class="cls-1" d="M34.05,44.3l23.62,5.37"/></g></g></svg>